<?xml version="1.0" encoding="UTF-8"?>
<svg width="109px" height="52px" viewBox="0 0 109 52" version="1.1" xmlns="http://www.w3.org/2000/svg" xmlns:xlink="http://www.w3.org/1999/xlink">
    <!-- Generator: Sketch 47.1 (45422) - http://www.bohemiancoding.com/sketch -->
    <title>logotipo ECMO</title>
    <desc>Created with Sketch.</desc>
    <defs></defs>
    <g id="web" stroke="none" stroke-width="1" fill="none" fill-rule="evenodd">
        <g id="Umbrella---Home" transform="translate(-165.000000, -33.000000)">
            <g id="Group-15" transform="translate(36.000000, -3.000000)">
                <g id="logotipo-ECMO" transform="translate(129.000000, 36.000000)">
                    <text id="Clinica-Las-Condes" fill="#000000" font-family="Helvetica" font-size="12" font-weight="normal">
                        <tspan x="6" y="51">Clinica Las Condes</tspan>
                    </text>
                    <path d="M30,30 C30.4095941,30.2956522 30.7859779,30.626087 31.1291513,31 L33,30.6782609 L33,30.2434783 L30,30 Z" id="Shape" fill="#C8C8C9" fill-rule="nonzero"></path>
                    <path d="M20,29.3068182 L17,29 L17,29.8522727 L19.4498567,30 C19.6131805,29.7613636 19.7936963,29.5227273 20,29.3068182 Z" id="Shape" fill="#C8C8C9" fill-rule="nonzero"></path>
                    <path d="M6.82207297,33.5030834 C6.79587694,33.494278 6.76094891,33.4766672 6.73475289,33.4678618 C6.56884474,33.3886133 6.4029366,33.3181701 6.22829644,33.2389216 L6.12351235,33.1860893 C6.08858432,33.1684785 6.05365629,33.1508677 6.01872826,33.1332569 C5.9488722,33.0980353 5.87901613,33.0540084 5.80042806,33.0099814 C5.51227181,32.8338736 5.23284756,32.6313496 4.97088733,32.4200202 C4.43823486,31.988556 3.97543845,31.4866486 3.59123011,30.9319089 C3.53010606,30.8526604 3.47771401,30.7646065 3.42532196,30.685358 C2.80534942,28.8186149 2.92759752,27.0047041 3.10223768,25.9216409 C3.22448579,26.0449164 3.3554659,26.1681919 3.49517803,26.2914674 C4.08022254,26.8285963 4.71765911,27.3305036 5.43368374,27.8236056 C5.87901613,28.1317943 6.34181254,28.4135668 6.82207297,28.6953394 L6.82207297,27.9468811 L12.6463221,27.9468811 C12.532806,27.0047041 11.4500371,26.2034135 11.1880768,25.877614 C11.5373571,25.9744733 16.6193856,27.5330277 16.9773979,27.6210816 C18.3395912,27.9556865 19.7454444,28.2286536 21.2124217,28.4575938 C22.2340666,27.8852433 23.4303517,27.5946654 24.7838129,27.5946654 C26.6961225,27.5946654 28.2766159,28.1229889 29.525293,29.1884413 C30.1801936,29.2060521 30.8438262,29.2236629 31.5074588,29.2236629 C31.708295,29.2236629 31.9178632,29.2236629 32.1274313,29.2236629 L32.1274313,28.034935 C32.1186993,28.0085188 32.1099673,27.990908 32.1012353,27.9644919 C29.6737372,27.9116595 27.263703,27.7443571 24.932257,27.4537791 C22.2602626,27.1191742 19.7367124,26.6436831 17.4314624,26.0273056 C16.1915173,25.6927007 14.9777682,25.3140689 13.8426072,24.8914101 C12.6113941,24.4247243 11.4849651,23.9140116 10.4982482,23.3504665 C9.94813173,23.0422778 9.44167528,22.7164783 8.99634289,22.3906788 C8.50735046,22.0296577 8.07948208,21.6510258 7.72146976,21.2635886 C7.32852942,20.8409298 7.03164115,20.4094656 6.82207297,19.9780014 C6.71728888,19.7490612 6.6299688,19.520121 6.57757675,19.2911808 C6.55138073,19.1767107 6.53391671,19.0622406 6.5164527,18.9477705 C6.50772069,18.8949382 6.50772069,18.8333004 6.49898868,18.7716627 C6.49898868,18.7364411 6.49898868,18.7100249 6.49898868,18.6836088 L6.49898868,18.5955548 L6.49898868,18.4986955 C6.49898868,18.4722794 6.49898868,18.4458632 6.49898868,18.419447 C6.49898868,18.3578093 6.50772069,18.2961715 6.5164527,18.2433392 C6.53391671,18.1288691 6.55138073,18.014399 6.57757675,17.8999289 C6.6299688,17.6709887 6.71728888,17.4420485 6.82207297,17.2131083 C7.03164115,16.7816441 7.32852942,16.3501799 7.72146976,15.9275211 C8.07948208,15.5488892 8.50735046,15.1702574 8.99634289,14.8004309 C9.44167528,14.4746314 9.93939973,14.1488319 10.4982482,13.8318378 C11.4849651,13.2770981 12.6113941,12.75758 13.8426072,12.2996996 C14.9690362,11.8770408 16.1740532,11.498409 17.4314624,11.1638041 C19.7367124,10.5474266 22.2602626,10.0719355 24.923525,9.73733058 C27.4208792,9.42914186 29.9968215,9.25303402 32.5989598,9.20900706 C32.9657041,9.20020167 33.3324484,9.20020167 33.6904607,9.20020167 C35.9433187,9.20020167 38.1699807,9.30586637 40.3005906,9.50839039 C43.042441,9.77255214 45.5223312,10.1864056 47.8799733,10.7675614 C49.2334345,11.1021663 50.4297195,11.454382 51.5386845,11.85943 C52.1586571,12.0795648 52.7437016,12.3173104 53.3025501,12.5638614 C53.9050586,12.8280231 54.4726391,13.1097957 54.9878276,13.3915682 C55.5728721,13.7173677 56.0880605,14.0343618 56.559589,14.3777721 C57.1009734,14.7740148 57.5463058,15.161452 57.9217822,15.5665 C58.3583825,16.0331858 58.6901988,16.508677 58.917231,16.9841681 C59.1617273,17.5036863 59.3014394,18.0496206 59.3014394,18.5779441 L59.3014394,18.6043602 C59.3014394,19.1326838 59.1704593,19.6786181 58.917231,20.1981362 C58.6901988,20.6736273 58.3583825,21.1403131 57.9305142,21.5981935 C58.0265663,21.8271337 58.1138863,22.0736847 58.1924744,22.3378464 C58.2797945,22.2497925 58.3671146,22.1617386 58.4457026,22.0824901 C58.9259631,21.5717773 59.2927074,21.0346484 59.5546676,20.4887141 C59.8428239,19.8811421 60,19.2295431 60,18.5955548 C60,17.970372 59.8515559,17.3099676 59.5546676,16.7023956 C59.2927074,16.1564613 58.9259631,15.6193324 58.4457026,15.1086196 C58.0352983,14.6683501 57.5463058,14.2368858 56.9874573,13.8230324 C56.4897329,13.453206 55.9570804,13.1097957 55.3545719,12.7663854 C54.2805349,12.1676187 53.1279099,11.6304898 51.8181088,11.1461933 C50.6392877,10.7059237 49.3906106,10.3096811 48.0982735,9.96627077 C45.7318994,9.34108794 43.1472251,8.84798599 40.4141067,8.50457571 C37.8730924,8.1875816 35.2360261,8.01147376 32.5902278,7.9674468 C32.2234834,7.95864141 31.8567391,7.95864141 31.4899948,7.95864141 C29.1847447,7.95864141 26.9144227,8.06430611 24.7401528,8.27563552 C23.3517636,8.4077164 22.0681585,8.57501884 20.8282134,8.77754286 C19.4398241,9.00648305 18.173683,9.26183941 16.9599339,9.56122274 C15.5715447,9.90463302 14.3315996,10.2744595 13.1702426,10.6971183 C11.7818534,11.1990256 10.5855683,11.7273492 9.52899536,12.3173104 C8.90029081,12.6695261 8.34144231,13.0217418 7.82625386,13.3915682 C7.22374532,13.8318378 6.71728888,14.2721074 6.28068849,14.7387932 C5.87901613,15.1702574 5.53846783,15.6193324 5.2765076,16.0772128 C6.00999625,14.3425506 7.59922166,12.8104124 9.31069517,11.454382 C11.1880768,10.397735 14.9253761,8.78634825 21.6664861,7.56239877 C21.6664861,7.56239877 21.6664861,7.56239877 21.6664861,7.57120416 C22.2602626,7.48315024 22.8802352,7.41270711 23.4914757,7.35987476 L25.8229218,6.96363212 C26.7048546,6.8755782 27.5955193,6.80513507 28.4949161,6.75230272 C28.7481444,6.73469193 28.9489805,6.52336253 28.9489805,6.26800616 L28.9489805,6.25039538 C28.9489805,6.1183145 28.8965885,5.98623362 28.8005364,5.8981797 C28.7044843,5.81012578 28.5822362,5.75729343 28.4512561,5.76609882 C27.3859512,5.81893117 26.3206462,5.88937431 25.2640733,5.98623362 L25.3077333,5.95981744 C25.3077333,5.95981744 24.8012769,6.0038444 23.9368081,6.1095091 C23.7272399,6.13592528 23.5089397,6.15353606 23.2993715,6.17995224 C23.0636073,6.20636842 22.8365751,6.23278459 22.6095429,6.26800616 C22.6095429,6.26800616 22.6095429,6.25920077 22.6008109,6.25039538 C22.3475827,6.28561694 22.0856225,6.32083851 21.8149302,6.35606008 C21.8149302,6.37367086 21.8149302,6.38247625 21.8149302,6.40008704 C20.1558488,6.6554434 18.0514349,7.02526986 15.8335049,7.54478799 L15.7112568,5.05286207 C15.6064727,4.43648464 15.5016886,5.62521255 15.5016886,5.62521255 C15.5016886,5.62521255 15.3008525,6.84035663 14.6634159,7.83536592 C11.9826895,8.52218649 9.22337509,9.42914186 6.96178509,10.6178698 C8.15807015,7.54478799 10.6204963,1.2049058 10.7078164,1.09043571 C10.8213325,0.940744047 10.9523126,0.81746856 11.1007568,0.738220033 C11.1182208,0.729414641 11.1356848,0.720609249 11.1531488,0.711803857 C11.1531488,0.711803857 11.1618808,0.711803857 11.1618808,0.711803857 L11.1793448,0.702998465 L11.1880768,0.702998465 L11.2230049,0.685387681 C11.2666649,0.667776897 11.3190569,0.650166113 11.362717,0.63255533 C11.4587691,0.597333762 11.5548212,0.570917586 11.6508732,0.535696018 C11.8429774,0.482863667 12.0438136,0.438836707 12.2446498,0.412420531 C12.6463221,0.35958818 13.0654585,0.368393572 13.4671308,0.456447491 C13.8688032,0.535696018 14.2617435,0.685387681 14.6284879,0.896717087 C14.9952322,1.10804649 15.3357805,1.36340286 15.6152047,1.68039697 L15.6937928,1.61875922 C15.1524083,0.923133263 14.4014557,0.394809748 13.5369869,0.148258774 C13.1091185,0.0249832869 12.6550541,-0.0190436727 12.2097217,0.00737250309 C11.9826895,0.016177895 11.7643893,0.0513994627 11.5373571,0.0954264223 C11.423841,0.121842598 11.3190569,0.148258774 11.2142729,0.17467495 C11.1618808,0.192285733 11.1094888,0.209896517 11.0483647,0.218701909 L10.9610446,0.245118085 C10.9261166,0.253923477 10.8999206,0.271534261 10.8649925,0.280339653 C10.3934641,0.500474451 10.0703798,0.923133263 9.88700768,1.37220825 C9.80841961,1.54831609 9.70363552,1.74203471 9.60758343,1.93575333 L9.30196316,2.50810381 C8.90029081,3.27417291 8.48115444,4.040242 8.07075007,4.8063111 C7.66034571,5.5723802 7.23247733,6.3296439 6.80460895,7.08690761 C6.43786463,7.747312 4.15881061,11.6392952 3.33800189,13.1362119 C2.6743693,13.7261731 2.06312876,14.3601613 1.5479403,15.0469819 C1.16373196,15.5753054 0.849379686,16.1124343 0.613615477,16.667174 C0.238139145,17.521297 0.0285709597,18.4458632 0.0023749365,19.3440132 C-0.0150890789,20.0220283 0.0634989906,20.7176543 0.246871153,21.4044749 C0.421511307,22.6284243 0.613615477,23.8523738 0.83191567,25.0675179 C0.962895786,25.7807547 1.0938759,26.5027968 1.24232003,27.2160335 C1.39076416,27.9292703 1.5479403,28.642507 1.73131247,29.3645492 C1.7749725,29.540657 1.82736455,29.7255702 1.8797566,29.9016781 C1.93214864,30.0865913 1.9932727,30.2626991 2.06312876,30.4476124 C2.08059277,30.4916393 2.09805679,30.5444717 2.11552081,30.5884986 L2.15044884,30.6677472 L2.17664486,30.7381903 C2.2203049,30.8262442 2.25523293,30.9142981 2.29889297,31.0023521 C2.38621304,31.1784599 2.48226513,31.3545677 2.58704922,31.5218702 C2.99745359,32.1998854 3.51264204,32.8074574 4.09768656,33.3445863 C4.39457482,33.6087481 4.7089271,33.8552991 5.0494754,34.0842392 C5.13679548,34.1370716 5.22411555,34.1987093 5.31143563,34.2515417 C5.35509567,34.2779579 5.39875571,34.304374 5.45114776,34.3307902 C5.46861177,34.3395956 5.47734378,34.3395956 5.49480779,34.3572064 L5.52973583,34.3748172 L5.59085988,34.4100387 C5.75676803,34.4980927 5.92267617,34.5861466 6.09731633,34.6653951 C6.32434853,34.7798652 6.56011274,34.8855299 6.79587694,35 L6.79587694,33.5030834 L6.82207297,33.5030834 Z" id="Shape" fill="#C8C8C9" fill-rule="nonzero"></path>
                    <path d="M23.1260669,17.2605998 C23.1172416,17.2605998 23.1172416,17.2605998 23.1084162,17.2605998 C22.9672104,17.2605998 22.8348299,17.2781799 22.7377508,17.3133402 C22.6494972,17.3485005 13.9653371,20.565667 18.3074171,24.0113754 C21.078582,26.2176836 27.0886563,27 31.7925763,27 L31.7925763,27 C31.8720046,27 31.9426075,27 32.0220358,27 C31.9690836,26.7978283 31.9249568,26.5868666 31.8896553,26.3759049 C31.7925763,26.3759049 31.6954973,26.3759049 31.5895929,26.3759049 C29.2861724,26.3759049 27.300465,26.1385729 25.6854231,25.6726991 C22.1023245,24.6266805 20.3107752,23.0005171 21.0168045,21.4270941 C21.4933742,20.3547053 23.0819401,19.4053775 25.5177411,18.6758014 C25.5177411,18.6758014 25.5177411,18.6670114 25.5089158,18.6670114 C25.756026,19.0010341 26.1266914,19.3174767 26.6120865,19.589969 L24.8293626,20.3371251 C24.7146328,20.3898656 24.670506,20.4513961 24.7146328,20.5129266 C24.7411089,20.5392968 26.4708806,22.8159255 31.8190524,24.3102378 C31.88083,23.7037229 32.0043851,23.1235781 32.1897178,22.5698035 C30.9012144,21.9896587 30.0451539,21.3304033 29.6656631,20.6184074 C29.6480124,20.6184074 29.639187,20.6096174 29.6215363,20.6096174 C30.6452787,20.802999 31.7749256,20.9084798 32.9486993,20.92606 C33.2222856,20.4865564 33.5311734,20.0910031 33.8753627,19.7306101 C33.6370778,19.7394002 33.3987929,19.7481903 33.1516827,19.7481903 C31.254229,19.7481903 29.4715051,19.475698 28.1477002,18.9922441 C27.0533548,18.5879007 26.382627,18.0692865 26.382627,17.6209928 C26.382627,17.533092 26.4091031,17.4451913 26.4620553,17.3485005 L26.6032611,17.0847983 L26.576785,17.0672182 L27.4416709,14.9488108 C27.7946855,15.221303 28.2800807,15.4498449 28.8978563,15.6432265 C30.0275031,16.0036194 31.5278153,16.197001 33.1075558,16.197001 C34.6872964,16.197001 36.1787832,16.0036194 37.3172554,15.6432265 C37.9615071,15.4410548 38.4557276,15.1949328 38.8087423,14.9136505 L39.8413101,17.2957601 L39.9383891,17.5067218 C39.9472145,17.5418821 39.9472145,17.5770424 39.9472145,17.6122027 C39.9472145,17.7616339 39.8677862,17.9198552 39.717755,18.0780765 C40.9797823,18.3945191 42.1094291,19.0098242 43.0802194,19.71303 L43.1155208,19.71303 C43.1243462,19.71303 43.1331716,19.71303 43.1419969,19.71303 C43.2743774,19.71303 43.4067579,19.6954498 43.4950116,19.6602896 C43.5832652,19.6251293 52.1703463,16.3815926 47.7223619,12.9446743 C44.9158955,10.7735264 38.9411227,10 34.2901549,10 C30.9276905,10 28.0153197,10.3779731 26.4973567,11.0196484 C26.4091031,11.0548087 26.3649763,11.1075491 26.3649763,11.1514995 C26.3649763,11.2042399 26.4267538,11.2481903 26.5150075,11.2833506 C26.6120865,11.3185109 26.7356416,11.336091 26.8680221,11.336091 C26.9474504,11.336091 27.0357041,11.3273009 27.106307,11.3097208 C27.1416085,11.3009307 30.6011519,10.6153051 34.4666622,10.6153051 C36.7259559,10.6153051 38.6851871,10.8438469 40.2914037,11.3009307 C43.9098038,12.3293692 45.7454799,13.9555326 45.0924028,15.5289555 C44.6687853,16.5398139 43.2655521,17.4451913 41.0768613,18.1659772 C41.0768613,18.1747673 41.0680359,18.1835574 41.0680359,18.1923475 C41.1474642,17.9989659 41.1827657,17.7967942 41.1827657,17.5946225 C41.1827657,17.28697 41.094512,16.9881075 40.9180047,16.6980352 L39.3559149,13.2259566 C39.3382642,13.1732161 39.3206135,13.1292658 39.2941374,13.0853154 L39.1970584,12.8655636 L39.1529315,12.8567735 C38.8175676,12.42606 38.2086174,12.065667 37.3172554,11.7843847 C36.1876086,11.4239917 34.6872964,11.2306101 33.1075558,11.2306101 C31.5278153,11.2306101 30.0363285,11.4239917 28.8978563,11.7843847 C28.818428,11.8107549 28.7478251,11.8371251 28.6772221,11.8634953 C28.7036982,11.8547053 28.7301743,11.8459152 28.7654758,11.8283351 C27.829987,11.7404343 26.8327206,11.6701138 25.756026,11.6349535 C25.2000279,11.6173733 24.6352045,11.6085832 24.0880318,11.6085832 C19.1546523,11.6085832 14.7507946,12.3908997 12.0061058,13.7445708 C9.90566873,14.7817994 9.24376628,16.0036194 10.3292863,16.8386763 C10.41754,16.9002068 10.5940473,16.9441572 10.7882053,16.9441572 C10.8235068,16.9441572 10.8499829,16.9441572 10.8852844,16.9441572 C11.1323946,16.926577 11.3089019,16.8386763 11.2912512,16.7507756 C11.2912512,16.7419855 11.2118229,15.9948294 11.9796297,15.1509824 C12.9857215,14.0522234 14.8920005,13.3314374 17.6455147,13.0062048 C19.1987791,12.8216132 20.8314718,12.7249224 22.5082913,12.7249224 C24.0350796,12.7249224 25.5442172,12.8040331 26.9739265,12.9534643 L26.9121489,13.1028956 C26.8856728,13.155636 26.8680221,13.2083764 26.841546,13.2611169 L26.1619928,14.86091 C21.6787069,14.8697001 15.4921254,15.2388831 11.2736005,16.9881075 C7.91996139,18.376939 7.09920235,20.1085832 9.01430677,21.7435367 C10.4793175,22.991727 13.4005137,23.9322647 16.2864083,24.090486 C16.3040591,24.090486 16.3305352,24.090486 16.3570112,24.090486 C16.5599947,24.090486 16.7453274,24.0465357 16.8247556,23.9762151 C16.9218347,23.8883144 16.8159303,23.7740434 16.5864708,23.7300931 C16.5070425,23.7125129 8.81132335,22.2269907 10.3204609,19.9855222 C11.7678209,17.8319545 17.7072922,16.2673216 24.4322211,16.2673216 C24.8028865,16.2673216 25.1823772,16.2761117 25.5530426,16.2849018 L25.297107,16.8914168 L25.2882816,16.9002068 C25.2706309,16.9441572 25.2529801,16.9881075 25.2353294,17.0320579 L25.1823772,17.1463289 L25.1912026,17.1551189 C25.1735518,17.2078594 25.1647265,17.2605998 25.1559011,17.3133402 C25.1559011,17.3045502 25.1559011,17.2957601 25.1559011,17.28697 L23.1260669,17.2605998 Z M29.3038231,13.1292658 C30.3099148,12.8128232 31.6690212,12.6370217 33.1163812,12.6370217 C34.5637412,12.6370217 35.9228476,12.8128232 36.9289393,13.1292658 C37.6879208,13.3665977 38.0144593,13.6215098 38.102713,13.7357808 C38.0144593,13.8500517 37.6967461,14.0961737 36.9289393,14.3422958 C35.9228476,14.6587384 34.5637412,14.8345398 33.1163812,14.8345398 C31.6690212,14.8345398 30.3099148,14.6587384 29.3038231,14.3422958 C28.5448416,14.1049638 28.2183031,13.8500517 28.1300494,13.7357808 C28.2183031,13.6215098 28.5360163,13.3665977 29.3038231,13.1292658 Z" id="Shape" fill="#C8C8C9" fill-rule="nonzero"></path>
                    <path d="M50.6535364,13 C50.624904,13 50.5867275,13 50.548551,13 C50.3385802,13 50.1381535,13.0425532 50.0522563,13.1021277 C49.9281827,13.187234 50.0331681,13.2978723 50.2813154,13.3404255 C50.3576684,13.3574468 58.451089,14.906383 56.4849986,17.0510638 C56.1986748,17.3659574 55.7787331,17.6723404 55.2633502,17.9531915 C55.8550862,18.1659574 56.5327193,18.4978723 57.18172,19 C59.1859868,17.8851064 59.567752,16.6170213 58.155221,15.3659574 C56.7713225,14.1489362 53.755378,13.1957447 50.6535364,13 Z" id="Shape" fill="#C8C8C9" fill-rule="nonzero"></path>
                    <path d="M48,20 C47.037037,20.0751445 46.037037,20.132948 45,20.1676301 C45.5,20.4566474 45.9351852,20.7456647 46.287037,21 C46.3333333,21 46.3703704,20.9942197 46.4166667,20.9942197 C46.8425926,20.6936416 47.3703704,20.3468208 48,20 Z" id="Shape" fill="#C8C8C9" fill-rule="nonzero"></path>
                    <path d="M64.3966614,16.4053936 C64.2661096,16.1142439 64.1094476,15.8230943 63.9353786,15.5405079 C63.6568683,15.0695305 63.3000269,14.5814267 62.8300407,14.0761964 C62.368758,13.5624029 61.8465511,13.0828623 61.2373097,12.6033218 C60.6541787,12.1409076 60.0101236,11.7041831 59.2790339,11.2674587 C58.0692546,10.5481478 56.7028133,9.89734271 55.0926754,9.2722273 C53.7349375,8.74987058 52.307572,8.28745644 50.732248,7.86785842 C47.955848,7.13142109 45.0401929,6.59193792 41.8025103,6.22371926 C41.0540137,6.13808701 40.2881103,6.06101798 39.5222069,6.00107541 C39.3916552,5.99251219 39.2611034,6.03532831 39.1566621,6.12096056 C39.0609241,6.21515603 39,6.33504118 39,6.47205278 L39,6.52343213 C39,6.76320242 39.1827724,6.96871982 39.426469,6.99440949 C39.6875724,7.02009917 39.9573793,7.04578884 40.2184827,7.08004174 C40.8277241,7.16567399 41.4891861,7.25986946 42.3943447,7.41400751 C43.4996826,7.60239845 47.6425239,8.30458289 52.2727583,9.79458401 C52.3336824,9.81171046 52.3859031,9.83740013 52.4468272,9.86308981 C53.16051,10.1285498 53.8480823,10.4111362 54.4834341,10.6937226 C55.1797099,11.0019987 55.8324685,11.3274013 56.4417099,11.661367 C57.1031719,12.0210225 57.7298202,12.3978044 58.2955443,12.7831495 C58.9134891,13.2027475 59.4705098,13.6309087 59.9753098,14.0761964 C60.523627,14.5643002 60.9936132,15.0695305 61.3765649,15.5747608 C61.7943304,16.1228072 62.1076545,16.68798 62.3252407,17.2445896 C62.4122752,17.4843599 62.4819028,17.715567 62.5341235,17.9553373 C62.4644959,19.1541888 62.2469097,20.3102241 61.8030339,21.4148801 C61.6202614,21.6974665 61.4113787,21.9714897 61.1676821,22.2455129 C60.7673235,22.7079271 60.2799304,23.161778 59.7229098,23.5985024 C59.3834753,23.8639624 59.009227,24.1294224 58.600165,24.3948823 C58.5914615,24.420572 58.5914615,24.4376985 58.5827581,24.4633881 C58.3042477,25.2426416 57.7124133,26.1845963 56.4852271,27.0922982 C56.8594754,27.237873 57.3555719,27.4519536 57.8342615,27.7174136 C58.017034,27.8030458 58.1911029,27.8972413 58.3564684,28 C58.7916408,27.7431033 59.2007029,27.4862065 59.6010615,27.2207465 C60.2973373,26.7497692 60.9413925,26.2531021 61.533227,25.7307454 C62.2033925,25.1313197 62.7691166,24.5404572 63.2478062,23.9067785 C63.8048269,23.1789044 64.2399993,22.4082142 64.5359165,21.637524 C64.8666476,20.7726382 65.0233096,19.8563732 64.9971993,18.9829243 C64.9797924,18.1266018 64.7709096,17.2274632 64.3966614,16.4053936 Z" id="Shape" fill="#C8C8C9" fill-rule="nonzero"></path>
                    <polygon id="Shape" fill="#000000" fill-rule="nonzero" points="18 39 7 39 7 28 17.5978879 28 17.5978879 29.6412698 8.74248578 29.6412698 8.74248578 32.4698413 14.8992689 32.4698413 14.8992689 34.1111111 8.74248578 34.1111111 8.74248578 37.3587302 18 37.3587302"></polygon>
                    <path d="M30,30.9573034 L28.5136459,31.5685393 C27.5143457,30.3460674 26.1119664,29.7348315 24.3149055,29.7348315 C22.9545136,29.7348315 21.8376487,30.1393258 20.9811057,30.9393258 C20.1245626,31.7393258 19.6962911,32.7640449 19.6962911,34.0044944 C19.6962911,35.2898876 20.1245626,36.3235955 20.9727082,37.105618 C21.8208537,37.8966292 22.9713086,38.2831461 24.4156753,38.2831461 C26.1623513,38.2831461 27.5311407,37.6629213 28.5388383,36.4224719 L29.9412176,37.3123596 C29.2358293,38.2651685 28.4296711,38.9483146 27.5311407,39.3707865 C26.6326102,39.7932584 25.5661302,40 24.323303,40 C22.576627,40 21.1238628,39.4966292 19.973408,38.4988764 C18.6550035,37.3483146 18,35.847191 18,33.9955056 C18,32.1707865 18.6717985,30.6786517 20.0069979,29.5191011 C21.1742477,28.5033708 22.6102169,28 24.3317005,28 C26.7837649,28.0179775 28.6815955,28.9977528 30,30.9573034 Z" id="Shape" fill="#000000" fill-rule="nonzero"></path>
                    <path d="M52.5584416,27.3263731 C53.7705628,26.8542896 54.5238095,26.4366773 55,26.0826146 C55,26.0826146 55,26.0735361 55,26.0735361 C55,22.7144803 52.5930736,20 49.6233766,20 C48.6277056,20 47.6839827,20.30867 46.8874459,20.8443032 C46.7922078,20.9078529 46.7056277,20.9714026 46.6190476,21.0349523 C46.6190476,21.0349523 46.6190476,21.0349523 46.6190476,21.0349523 C46.4285714,21.1802088 46.2554113,21.3345438 46.0822511,21.4979573 C46.0822511,21.4979573 46.0822511,21.4979573 46.0735931,21.5070359 C45.987013,21.5887426 45.9090909,21.6704494 45.8311688,21.7612347 C45.8225108,21.7703132 45.8138528,21.7793917 45.8051948,21.7884703 C45.7359307,21.870177 45.6666667,21.9518838 45.5974026,22.0335906 C45.5800866,22.0608261 45.5627706,22.0880617 45.5367965,22.1152973 C45.4848485,22.1879256 45.4242424,22.2605538 45.3809524,22.333182 C45.3463203,22.3785747 45.3203463,22.4330458 45.2857143,22.4784385 C45.2510823,22.5329097 45.2164502,22.5873808 45.1818182,22.641852 C45.1212121,22.7507944 45.0519481,22.8597367 45,22.9686791 C44.9393939,22.8415797 44.8701299,22.7235588 44.7922078,22.6146164 C44.7748918,22.5783023 44.7489177,22.5510667 44.7316017,22.5147526 C44.6796537,22.4330458 44.6277056,22.3513391 44.5670996,22.2696323 C44.5411255,22.2333182 44.5151515,22.2060826 44.4891775,22.1697685 C44.4285714,22.0880617 44.3679654,22.0154335 44.3073593,21.9337267 C44.2813853,21.9064911 44.2640693,21.8792556 44.2380952,21.85202 C44.1688312,21.7703132 44.0909091,21.6886064 44.012987,21.6068997 C43.995671,21.5887426 43.987013,21.5705856 43.969697,21.561507 C43.5800866,21.1620517 43.1298701,20.8261462 42.6450216,20.5719473 C42.6450216,20.5719473 42.6450216,20.5719473 42.6450216,20.5719473 C41.952381,20.2088062 41.1904762,20 40.3766234,20 C37.4069264,20 35,22.7235588 35,26.0735361 C35,28.0889696 35.7532468,29.6141625 37.04329,31.1030413 L39.7619048,34.2078983 L43.9264069,28.3340899 L44.004329,28.3340899 L44.047619,28.2705402 L44.9480519,28.3340899 L46.030303,28.3340899 L46.012987,40 L47.8311688,37.6214253 C47.1298701,36.2233318 46.9220779,34.6436677 46.9220779,33.5451657 C46.9134199,31.0576487 48.9220779,28.7244666 52.5584416,27.3263731 Z" id="Shape" fill="#C4351A" fill-rule="nonzero"></path>
                    <path d="M59.8520499,29.470074 C59.1925134,28.9367855 58.4438503,28.5521184 57.6060606,28.3073302 C56.8306595,28.7706792 55.6541889,29.330195 54.9322638,29.6624075 C55.0392157,29.6536651 55.1461676,29.6536651 55.2531194,29.6536651 C56.5811052,29.6536651 57.6951872,29.99462 58.5953654,30.6852724 C59.6381462,31.4895763 60.1550802,32.529926 60.1550802,33.8150639 C60.1550802,35.0564896 59.7094474,36.0531271 58.8181818,36.8312038 C57.9269162,37.600538 56.7326203,37.9852051 55.2531194,37.9852051 C53.7557932,37.9852051 52.5614973,37.600538 51.6613191,36.8399462 C50.7700535,36.070612 50.3244207,35.065232 50.3244207,33.8150639 C50.3244207,32.6086079 50.7789661,31.6119704 51.6969697,30.8251513 C52.0980392,30.4841964 52.5525847,30.2219233 53.0516934,30.0295898 L53.0606061,30.0121049 C57.3654189,28.6919973 58.8716578,26.7686617 59.3707665,25.3611298 C59.7629234,23.99731 59.3618538,22.9219906 59.3618538,22.9219906 C57.9180036,18.1223941 53.684492,18 53.684492,18 L53.684492,18 C53.5686275,18 53.4438503,18 53.3190731,18.0087424 C50.0124777,18.2273033 47.3565062,20.6751849 45.9928699,22.2313383 C44.6381462,20.6839274 41.9910873,18.2447882 38.6934046,18.0262273 C35.0035651,17.7814391 32,21.2347007 32,25.1862811 C32,26.3927371 32.2406417,27.4418292 32.6862745,28.4209818 L32.6862745,39.3490249 L34.4242424,39.3490249 L34.4242424,30.9825151 C34.459893,31.0262273 34.4955437,31.0699395 34.540107,31.1136516 L37.0445633,33.7626093 L39.8698752,37.5218561 L43.2923351,33.0107599 L45.342246,30.3443174 L45.3600713,30.3443174 L45.3868093,34.4707465 L45.3868093,43.6590451 L45.3600713,44 L47.0623886,42.1990585 L47.0623886,41.8755884 L47.0713012,41.866846 L47.0980392,28.3335575 L45.9839572,28.3335575 L45.057041,28.2723605 L44.9768271,28.2548756 L44.9322638,28.3335575 L40.4135472,34.2958978 L39.8877005,34.9778077 L38.399287,33.2293208 L35.8235294,29.99462 C34.8163993,28.5346335 33.6042781,27.1271015 33.6042781,25.2125084 C33.6042781,22.0215198 36.2245989,19.5036987 39.459893,19.4337592 C40.7967914,19.4075319 42.2941176,20.0457297 43.6221034,20.8587761 C44.6292335,21.3570948 45.4759358,22.1613988 46.0463458,23.1755212 C46.5276292,22.327505 47.1960784,21.6193679 48.0071301,21.1210491 L47.9982175,21.1123067 C49.4242424,20.1856086 51.1087344,19.3987895 52.5793226,19.4337592 C55.1372549,19.4862139 57.1336898,21.0685945 57.8645276,23.3066577 C57.9001783,23.4203093 57.9269162,23.5427034 57.9714795,23.6825824 C58.6488414,26.0430397 54.7361854,27.6866174 53.1319073,28.2548756 C52.2228164,28.4996638 51.402852,28.9018157 50.6809269,29.4788164 C49.254902,30.6153329 48.5418895,32.066577 48.5418895,33.8325488 C48.5418895,35.6247478 49.2459893,37.0847344 50.6541889,38.1950235 C51.8930481,39.1829186 53.4349376,39.672495 55.2887701,39.672495 C57.1247772,39.672495 58.657754,39.1829186 59.8877005,38.2125084 C61.2959002,37.0934768 62,35.6334902 62,33.8325488 C61.973262,32.0490921 61.2691622,30.6065905 59.8520499,29.470074 Z" id="Shape" fill="#000000" fill-rule="nonzero"></path>
                </g>
            </g>
        </g>
    </g>
</svg>